/* XPM */
static char *_511140117413[] = {
/* columns rows colors chars-per-pixel */
"32 32 184 2 ",
"   c #2A7E4E",
".  c #3D6E54",
"X  c #2E7F50",
"o  c #3A7655",
"O  c #3E5A7D",
"+  c #44745A",
"@  c #43795B",
"#  c #48795E",
"$  c #457356",
"%  c #507B5F",
"&  c #475E79",
"*  c #4C7C62",
"=  c #527D60",
"-  c #49617B",
";  c #B7103F",
":  c #B91E3B",
">  c #B8233F",
",  c #D90227",
"<  c #D6052B",
"1  c #D80128",
"2  c #D10A2F",
"3  c #C30835",
"4  c #D30E32",
"5  c #C71639",
"6  c #AF2F47",
"7  c #BC2B46",
"8  c #AD374D",
"9  c #A23A4F",
"0  c #B03D52",
"q  c #C12349",
"w  c #8D4856",
"e  c #974C5B",
"r  c #97505D",
"t  c #AC4658",
"y  c #BF4058",
"u  c #8E5162",
"i  c #925464",
"p  c #9C5563",
"a  c #955867",
"s  c #965969",
"d  c #9F5865",
"f  c #B14861",
"g  c #A05967",
"h  c #A65D6B",
"j  c #AA4E64",
"k  c #9D6170",
"l  c #AA6370",
"z  c #B86B79",
"x  c #CF566C",
"c  c #01923E",
"v  c #19993E",
"b  c #2C9E3E",
"n  c #0E8F45",
"m  c #049240",
"M  c #0A9243",
"N  c #129047",
"B  c #1D9941",
"V  c #128E46",
"C  c #26864F",
"Z  c #2C9E40",
"A  c #288750",
"S  c #388353",
"D  c #308A4B",
"F  c #55866B",
"G  c #5C896D",
"H  c #548266",
"J  c #5E8E72",
"K  c #629276",
"L  c #659579",
"P  c #6D997C",
"I  c #699375",
"U  c #729B7D",
"Y  c #8E875C",
"T  c #948A5B",
"R  c #9A8E5E",
"E  c #938956",
"W  c #9E9057",
"Q  c #A89859",
"!  c #AFA05A",
"~  c #BBAB55",
"^  c #8F8860",
"/  c #948C64",
"(  c #9D9262",
")  c #9B946B",
"_  c #A19565",
"`  c #A49A6B",
"'  c #AA9E6D",
"]  c #A79B64",
"[  c #A49C73",
"{  c #ACA06F",
"}  c #ADA272",
"|  c #A7A171",
" . c #B1A574",
".. c #B4A877",
"X. c #B5AB7A",
"o. c #BAAD7B",
"O. c #B0A77D",
"+. c #C4AD54",
"@. c #CDB553",
"#. c #CFBA4E",
"$. c #DCC051",
"%. c #E6CC4F",
"&. c #EACB4D",
"*. c #F0CF4A",
"=. c #E7D344",
"-. c #EBD543",
";. c #FBD747",
":. c #FFDA44",
">. c #F5D34A",
",. c #E2CA51",
"<. c #265996",
"1. c #3A5F89",
"2. c #3E648D",
"3. c #366399",
"4. c #154AA7",
"5. c #104CA9",
"6. c #195DA9",
"7. c #195AA7",
"8. c #0152B4",
"9. c #0956B2",
"0. c #165DB3",
"q. c #315DA9",
"w. c #1C60A8",
"e. c #1C60A7",
"r. c #2063B3",
"t. c #3B62A4",
"y. c #435F83",
"u. c #4C6789",
"i. c #4E6A8B",
"p. c #476387",
"a. c #556C86",
"s. c #526C8D",
"d. c #5C6E8D",
"f. c #536586",
"g. c #5A728B",
"h. c #546F90",
"j. c #557192",
"k. c #5A7595",
"l. c #5E799A",
"z. c #5C7798",
"x. c #416692",
"c. c #637B94",
"v. c #637C9C",
"b. c #6B7D9C",
"n. c #557FB2",
"m. c #647FA0",
"M. c #6B829B",
"N. c #78A283",
"B. c #5280B6",
"V. c #6681A1",
"C. c #6B83A4",
"Z. c #6E89AA",
"A. c #7284A3",
"S. c #728DAD",
"D. c #7792B1",
"F. c #7B95B4",
"G. c #7E99B9",
"H. c #7D93BA",
"J. c #7C9DC4",
"K. c #85AE90",
"L. c #81AA8C",
"P. c #BFB280",
"I. c #BEB58A",
"U. c #8298AF",
"Y. c #839DBC",
"T. c #839AB1",
"R. c #89A1BA",
"E. c #CB838F",
"W. c #C5B986",
"Q. c #CBBE8B",
"!. c #C0B787",
"~. c #CDC18E",
"^. c #CFC69A",
"/. c #D1C491",
"(. c #D5C996",
"). c #D9CD9B",
"_. c #DED19E",
"`. c #D9D0A2",
"'. c #E2D5A3",
"]. c #E4DAA8",
"[. c #EEE0AD",
"{. c #8BA5C4",
"}. c #91AAC6",
"|. c None",
/* pixels */
"|.|.|.|.|.|.|.|.|.|.|.|.c c c c c c c c |.|.|.|.|.|.|.|.|.|.|.|.",
"|.|.|.|.|.|.|.|.|.c c c c c c c c c c c c c c |.|.|.|.|.|.|.|.|.",
"|.|.|.|.|.|.|.c c c c c c c m M M M c c c c c c c |.|.|.|.|.|.|.",
"|.|.|.|.|.|.c c c c c n A X o o @ o S A N m c c c c |.|.|.|.|.|.",
"|.|.|.|.|.c c c c n C o . # * * F # . + o   V c c c c |.|.|.|.|.",
"|.|.|.|.c c c M C o . * F L J K L F # # + + @ A M c c c |.|.|.|.",
"|.|.|.c c c m A . + G P P L L F F L K K F * # + X M c c c |.|.|.",
"|.|.b v v v D $ $ = U G P N.U I P L.K.N.I G H % # S Z v v Z |.|.",
"|.|.-.=.-.#.E E T |  .X.).].].'.`.(.!.o.} | [ / T T ~ =.=.-.|.|.",
"|.:.:.:.*.Q E E / { P.P.'.'.'.].'./.X. .o.{ ( _ R R Q ,.:.:.:.|.",
"|.:.:.:.@.T R R ( }  .P.(.'.'.(.(.Q.{ } } { _ _ ( ( ( +.;.:.:.|.",
"|.:.:.>.Q T R ( ( X.} P. .W.Q.' ..X. . . .} ' ` ` ] ( Q &.:.:.|.",
":.:.:.&.W T R ( ( _ X././.)./.)./.~.o. . ... .' ` ` _ _ $.:.:.:.",
":.:.:.#.T R R R R / ' (.[.'.Q.].'.Q.....' ..} ' ] _ ( ( @.:.:.:.",
":.:.:.+.T T R R R ( ` W._.Q.o.'._.o. . . . .' ` ` _ _ ( ~ ;.:.:.",
"%.%.,.! Y / ^ ^ / ( [ ) ^.!.I.`.^.O.| [ / ) [ [ ` / / / ] ,.%.%.",
"6.6.e.1.& - - g.M.z.a.g.U.}.R.R.T.c.a.c.g.M.b.g.a.a.a.u.2.6.e.e.",
"8.8.9.<.1.h.Z.S.M.k.j.C.U.R.{.H.S.z.u.u.k.k.V.v.j.i.h.i.3.8.8.8.",
"8.8.8.7.m.Y.Y.G.C.Z.m.v.F.m.m.k.h.u.p.v.S.z.m.Z.S.j.i.i.<.9.8.8.",
"8.8.8.0.Y.{.G.F.Z.D.d.m.S.S.C.m.l.h.i.M.S.V.Z.H.R.G.l.2.6.8.8.8.",
"|.8.8.9.n.D.V.Z.D.C.p.i.k.C.D.m.S.k.k.v.C.m.}.{.G.R.F.t.9.8.8.|.",
"|.8.8.8.r.Z.Y.J.S.i.j.l.j.u.f.h.v.j.j.S.j.h.S.k.k.i.p.<.9.8.8.|.",
"|.8.8.8.9.n.}.Y.v.h.i.p.v.S.S.l.h.l.v.i.k.p.j.k.h.i.x.7.8.8.8.|.",
"|.|.5.5.4.q.H.A.A.d.g.g.f.c.v.b.C.a.f.A.b.d.f.k.A.C.t.4.5.5.|.|.",
"|.|.; 3 3 3 q j i a a a i i u w u s h a i u u r u f 5 3 3 ; |.|.",
"|.|.|.1 1 1 , 5 t h g d d g g r r w p p w w l z 0 4 1 1 1 |.|.|.",
"|.|.|.|., 1 , , 4 x z g d g g g p r z E.g w 9 q < 1 1 1 |.|.|.|.",
"|.|.|.|.|.1 1 , , < 7 t r p p r r r h z 0 : 4 1 1 1 1 |.|.|.|.|.",
"|.|.|.|.|.|.1 1 1 1 1 < 5 7 8 8 8 6 7 3 < 1 1 1 1 1 |.|.|.|.|.|.",
"|.|.|.|.|.|.|., 1 1 1 1 , 1 < 1 1 1 1 1 1 1 1 1 1 |.|.|.|.|.|.|.",
"|.|.|.|.|.|.|.|.|., 1 1 , 1 1 1 1 1 1 1 1 1 1 |.|.|.|.|.|.|.|.|.",
"|.|.|.|.|.|.|.|.|.|.|.|.1 1 1 1 1 , 1 , |.|.|.|.|.|.|.|.|.|.|.|."
};
