/* XPM */
static char *_511140142099[] = {
/* columns rows colors chars-per-pixel */
"64 64 220 2 ",
"   c #37674D",
".  c #3B6D52",
"X  c #376F51",
"o  c #3C7255",
"O  c #377753",
"+  c #2E7A4F",
"@  c #3E5A7D",
"#  c #395579",
"$  c #264D7E",
"%  c #427257",
"&  c #43745A",
"*  c #49785C",
"=  c #426F53",
"-  c #435D7D",
";  c #4C7C62",
":  c #49627C",
">  c #527E61",
",  c #BB1A38",
"<  c #BC213E",
"1  c #D80128",
"2  c #D9092C",
"3  c #D6062B",
"4  c #C50834",
"5  c #D80C32",
"6  c #C81839",
"7  c #DA1438",
"8  c #C90C2F",
"9  c #CB203F",
"0  c #843C4C",
"q  c #9C364A",
"w  c #B82A45",
"e  c #AF334A",
"r  c #D31E42",
"t  c #DD2748",
"y  c #C82241",
"u  c #E23A59",
"i  c #8C4452",
"p  c #8A4B5B",
"a  c #944C5A",
"s  c #994959",
"d  c #98505E",
"f  c #AA495B",
"g  c #9D5563",
"h  c #975767",
"j  c #8F5161",
"k  c #A15966",
"l  c #A45A68",
"z  c #B55064",
"x  c #A86676",
"c  c #B66B79",
"v  c #B06775",
"b  c #9F6070",
"n  c #E44B67",
"m  c #E65A74",
"M  c #E5536E",
"N  c #C86F7F",
"B  c #E7637C",
"V  c #CD4A63",
"C  c #02933E",
"Z  c #0A953F",
"A  c #16993E",
"S  c #0A9544",
"D  c #099645",
"F  c #16984B",
"G  c #1C9E53",
"H  c #1E9650",
"J  c #1B8F4C",
"K  c #2B8852",
"L  c #269954",
"P  c #2C8B52",
"I  c #27A25A",
"U  c #3FAA5D",
"Y  c #37A967",
"T  c #2EA561",
"R  c #41845D",
"E  c #56866A",
"W  c #5D8D71",
"Q  c #498463",
"!  c #629275",
"~  c #6C997C",
"^  c #669679",
"/  c #699576",
"(  c #4BB276",
")  c #52B57C",
"_  c #44AE6E",
"`  c #8D8559",
"'  c #958A5B",
"]  c #998E5E",
"[  c #958857",
"{  c #9D915C",
"}  c #A89756",
"|  c #B09D54",
" . c #B9A957",
".. c #968D62",
"X. c #9D9262",
"o. c #9B936A",
"O. c #A19565",
"+. c #A59A69",
"@. c #A99D6C",
"#. c #A49868",
"$. c #A39B71",
"%. c #ADA06F",
"&. c #ADA272",
"*. c #ADA57A",
"=. c #B2A574",
"-. c #B6AB7A",
";. c #BAAD7C",
":. c #B5A976",
">. c #BDB17E",
",. c #C9B356",
"<. c #CEB553",
"1. c #D8C450",
"2. c #EACE4E",
"3. c #E6CC4F",
"4. c #E9D443",
"5. c #E6D245",
"6. c #FFDA44",
"7. c #F8D549",
"8. c #E6C852",
"9. c #EFD052",
"0. c #2D5B92",
"q. c #134BA8",
"w. c #175CA9",
"e. c #0152B4",
"r. c #0A57B1",
"t. c #1056AF",
"y. c #255AA2",
"u. c #2B65AB",
"i. c #2C629F",
"p. c #435E81",
"a. c #456184",
"s. c #4A6485",
"d. c #4B6689",
"f. c #4E698B",
"g. c #45648B",
"h. c #526C8D",
"j. c #566B88",
"k. c #536E90",
"l. c #567193",
"z. c #5A7495",
"x. c #5E799A",
"c. c #5B7798",
"v. c #5B728D",
"b. c #627D9D",
"n. c #657A97",
"m. c #4974AC",
"M. c #637FA0",
"N. c #BA7483",
"B. c #EB768B",
"V. c #EA748A",
"C. c #C47C88",
"Z. c #6C8E90",
"A. c #5AB983",
"S. c #76A587",
"D. c #64BD8A",
"F. c #6681A1",
"G. c #6A85A5",
"H. c #6E89A9",
"J. c #6C87A8",
"K. c #718CAC",
"L. c #768AA8",
"P. c #7691B1",
"I. c #7A95B5",
"U. c #7E99B9",
"Y. c #718CB0",
"T. c #76C497",
"R. c #6DC190",
"E. c #7497C1",
"W. c #86B192",
"Q. c #BCB282",
"!. c #B6AD82",
"~. c #829DBD",
"^. c #8192B4",
"/. c #8198AE",
"(. c #8AA3BE",
"). c #D08895",
"_. c #ED8598",
"`. c #C2B583",
"'. c #C7BA88",
"]. c #F19BAB",
"[. c #EF93A4",
"{. c #F2A8B5",
"}. c #F4B2BE",
"|. c #89CDA5",
" X c #92D1AD",
".X c #9BD5B4",
"XX c #8FD0AA",
"oX c #A5D9BB",
"OX c #80C99F",
"+X c #CEC18E",
"@X c #DBCE9A",
"#X c #D4C895",
"$X c #DED19D",
"%X c #CEC494",
"&X c #E0D39F",
"*X c #DDD5A3",
"=X c #E3D5A2",
"-X c #EBDDAA",
";X c #E6D9A6",
":X c #EFE2AE",
">X c #F2E5B1",
",X c #86A1C1",
"<X c #8BA5C5",
"1X c #8EA9C8",
"2X c #93ADCB",
"3X c #9BB5D5",
"4X c #96B0CF",
"5X c #98B2D2",
"6X c #F5B9C4",
"7X c #ADDDC1",
"8X c #B3DEC5",
"9X c #BAE2CB",
"0X c #F6C3CD",
"qX c #F8CCD4",
"wX c #F9D3DA",
"eX c #C7E8D5",
"rX c #D1ECDD",
"tX c #DBF0E4",
"yX c #EFE9E7",
"uX c None",
/* pixels */
"uXuXuXuXuXuXuXuXuXuXuXuXuXuXuXuXuXuXuXuXuXuXuXuXuXuXD Z D C H _ S I Y S Z Z uXuXuXuXuXuXuXuXuXuXuXuXuXuXuXuXuXuXuXuXuXuXuXuXuXuX",
"uXuXuXuXuXuXuXuXuXuXuXuXuXuXuXuXuXuXuXuXuXuXZ G ) |.( C C C A.tXY .XrXS S XXoXY C C uXuXuXuXuXuXuXuXuXuXuXuXuXuXuXuXuXuXuXuXuXuX",
"uXuXuXuXuXuXuXuXuXuXuXuXuXuXuXuXuXuXuXuXI G C R.eX) F C C C D.9X|.9XeXS ) 9XR.oXD T T.D uXuXuXuXuXuXuXuXuXuXuXuXuXuXuXuXuXuXuXuX",
"uXuXuXuXuXuXuXuXuXuXuXuXuXuXuXuXuXD G .XoXeXG Y tX7XT C C D D. XrX X9XD |.T.T..XD  XtXY XXD Z uXuXuXuXuXuXuXuXuXuXuXuXuXuXuXuXuX",
"uXuXuXuXuXuXuXuXuXuXuXuXuXuXuXuXI D F 9XA.9XT F rX) Y I C C D.R.8XA.7XS .XT.7XD.G 9XeX.X|.D ( D.uXuXuXuXuXuXuXuXuXuXuXuXuXuXuXuX",
"uXuXuXuXuXuXuXuXuXuXuXuXuXuXS |.9XR.D R.tXrXR.D oX9XoXY C D F L L J T S Y oX.XF R. XoXtXI G eXoXoXI uXuXuXuXuXuXuXuXuXuXuXuXuXuX",
"uXuXuXuXuXuXuXuXuXuXuXuXuXC G rXY F D G rXA..XT L T P K K K K * Q R Q R P L H S ( I T.7XD XXtXA.Y G D uXuXuXuXuXuXuXuXuXuXuXuXuX",
"uXuXuXuXuXuXuXuXuXuXuXS A.T C .X|.G 7XD A.I F P K o X . . . = & & % & & * o o K P J I T Y tX( ) D S  XoXI uXuXuXuXuXuXuXuXuXuXuX",
"uXuXuXuXuXuXuXuXuXuXF G R.eXI I eX7X7XF S P + X   .     . . . & % ; % . . o & . o O K J G |.7XY S T.9X|.XXZ uXuXuXuXuXuXuXuXuXuX",
"uXuXuXuXuXuXuXuXuXZ ) 9XG T.9XF I ( H J K X . . . . % S.W ! ; E ! E ; ; o . . & * &   + K F Y Y R.eXI .X|.C Z uXuXuXuXuXuXuXuXuX",
"uXuXuXuXuXuXuXuXS D D |.9XI 9X( D J + O . . .   . * E S.S.E W ^ ! ! ; ; o & * o . . & o o O P J T.9X.X9XF C S I uXuXuXuXuXuXuXuX",
"uXuXuXuXuXuXuXG |.T.C S XXeXoXL P O X .   . ; W S.! W ^ E ; ^ ^ S.^ ^ Q * * E E ; .   ; Q ; o K G ( T.G G T.9X9XG uXuXuXuXuXuXuX",
"uXuXuXuXuXuXuXY 7X) .XOXD I G K . & % % > W ^ S.S.S.W Q / / E E E W E ! ^ ! W ~ ; ; E ; ; ; * o K J S T.tX.X.XT.C uXuXuXuXuXuXuX",
"uXuXuXuXuXuXC G 7X8XR.eXT S K o . = % % S.W Q S.S.E Z.S.~ ! > ; E ; S.~ E E W W W W > . & & ; & . + L I ( eX7XS C C uXuXuXuXuXuX",
"uXuXuXuXuXZ C D Z A XXoXF K X . % % % = ^ S.E * Q S.S.S.W ~ W E ; E Z.S.W.S.S.^ ! E ! W ; * * * % o + J A 9XT C C C Z uXuXuXuXuX",
"uXuXuXuXuXA A A A A _ L P O = % = * = W S.~ / > ~ W.~ ~ S.~ ~ ~ S.W.W.W.W.W.W.S.~ / * ! W > ; * * * * O H U F A A A A uXuXuXuXuX",
"uXuXuXuX4.4.4.4.4.4.4.<.} ` ` ` ' ` %.&.+.+.*.&.#X$X$X=X;X*X=X*X;X*X#X%X%X'.'.Q.>.o.;.o.*.%...' ' ' ` [  .3.5.5.5.4.4.4.uXuXuXuX",
"uXuXuX6.6.6.6.6.6.6.5.| ` ` [ [ ] { o.>.'.Q.+.+X&X-X:X-X-X:X-X;X;X@X@X#X+X>.>.=.%.-.=.%.&.X.X.O.{ ] ] ] } <.7.6.6.6.6.6.6.uXuXuX",
"uXuXuX6.6.6.6.6.6.4.<.[ [ [ [ [ { ' ] %.`.+X%.+X&X;X-X-X=X;X;X;X:X$X@X+X-.%.#.-.;.-.&.@...o.O.O.] ] ] ' ] | 8.6.6.6.6.6.6.uXuXuX",
"uXuXuX6.6.6.6.6.6.1.} [ [ [ [ [ ] %.;.-.'.-.#.#X$X&X&X&X*X$X;X;X$X@X%X+X-.%.%.;.Q.;.;.%.{ [ ] O.X.] { ] ..} <.7.6.6.6.6.6.uXuXuX",
"uXuX6.6.6.6.6.6.7.,.b [ ] ' ] X.] X.&.-.>.%.X.$X-X-X-X;X&X=X:X:X:X$X@X+X%.%.%.=.;.%.{ +.@.X.#...] X.{ { ] X.| 2.6.6.6.6.6.6.uXuX",
"uXuX6.6.6.6.6.6.8.O.[ [ ' ] [ X.] { %.&.&.%.:.Q.>.`.@X;X;X&X`.:.Q.'.'.=.#.%.%.%.;.X.-.:.O.X.#.O.o.%.%.#.o.] [ <.7.6.6.6.6.6.uXuX",
"uX6.6.6.6.6.6.7.,.[ [ ' ' X.] ' ] X.'.-.&.%.+X+X>.%.=.&X&X'.+.#.>.>.+X-.=.=.=.%.-.%.o.+.@.=.@.+.#.#.%.o.{ { X.| 9.6.6.6.6.6.6.uX",
"uX6.6.6.6.6.6.9.| [ [ ] ..X.O.O.X.X.=.;.%.%.>.%.#.#.O.#X&X:.@.+.=.%.%.%.%.=.=.=.-.%.=.+X;.@.@.#.#.#.{ #.#.X.{ { 1.6.6.6.6.6.6.uX",
"uX6.6.6.6.6.6.3.} [ [ [ ' ' X.X.X.] X.&.;.=.Q.$X>.`.>.=X#X'.@X#X=.+X>.;.%.=.%.;.=.=.`.@.;.@.@.+.+.+.+.+.X.X.X.{ ,.7.6.6.6.6.6.uX",
"uX6.6.6.6.6.6.<.{ [ ] ] { ] ] X.{ X.] ' ;.&.+X:X;X$X@X>X'.'.=X-X:X@X#X&X#X:.:.;.#.-.=.@.-.@.#.+.+.O.O.O.+.+.+.#.,.7.6.6.6.6.6.uX",
"6.6.6.6.6.6.7. .[ ] ' ] X.X.X.] { ] ] ] %.@.`.:X>X:X;X;X'.#X;X:X$X&X&X@X>.%.;.;.#.=.=.`.=.=.@.@.+.+.+.+.O.O.X.X.| 9.6.6.6.6.6.6.",
"6.6.6.6.6.6.2.| [ [ [ ] ] ' ' ] o.] ] ] +.&.;.:X:X:X-X$X-.`.-X>X:X+X>.=.%.%.;.%.O.Q.-.&.=.=.@.+.+.+.+.O.X.X.X.X.} 8.6.6.6.6.6.6.",
"6.6.6.6.6.6.3.} [ [ [ ' ..] ] X.X.] ] { &.&.=.*X=X$X=X#X'.+X@X>X:X#X>.%.%.;.;.%.+.;.@.=.@.@.@.@.@.#.O.O.X.X.{ X.{ <.6.6.6.6.6.6.",
"6.6.6.6.6.6.3.{ [ ] ] ..] O.X.X.] { X.X.#.&.%.#X$X@X'.O.} O.%X:X&X$X>.=.%.:.%.=.#.=.=.@.=.@.@.#.#.#.X.} X.X.X.X.{ ,.7.6.6.6.6.6.",
"6.6.6.6.6.6.1.{ [ [ ' o...] ' ..' ' ' ` X.&.o.;.&X=X-XQ.'.#X-X:X&X#XQ.&.&.;.%.%.$.' O.=.@.+.@.#.$.#.X.....' { X.#.,.7.6.6.6.6.6.",
"2.2.2.2.2.3.,.......` ` ` ' ` ` ` ..$.*.*.o...' @X'.!.*.$.Q.#X%X#X#X!.%.o.*.*.X.......$.$.$.$.$.$.o.#.o.o.o.o.o.X. .3.2.2.2.2.2.",
"w.w.w.w.w.w.0.# - - - : - - s.- F.G.n.v.j.: : : Z.(.2X(.(.I.P.L.U.(.Z.b.h.v.F.: n.j.F.L.n.v.v.h.j.j.j.v.j.j.: : : i.w.w.w.w.w.w.",
"r.e.e.e.e.r.y.# # @ - @ - @ n.G.F.F.l.z.l.h.s.G.n.4X2X(.(.(.2X<X(.J.z.h.# # x.F.g.z.n.F.J.c.l.k.f.f.f.d.g.f.f.s.a.i.e.e.r.e.e.r.",
"e.e.e.e.e.r.y.# - - # p.h.P.M.M.G.x.z.h.h.f.l.J.L.<X4X1X2X5X2X1X(.F.l.c.k.s.v.a.k.k.k.x.F.H.x.f.l.f.f.d.d.f.f.s.p.w.r.e.e.e.e.r.",
"e.e.e.e.e.e.w.# - # z.U.U.L.~.P.H.F.x.l.x.l.F.,XU.G.P.(.(.(.F.x.F.K.H.z.f.s.# z.c.M.h.z.F.G.H.F.l.h.f.d.k.k.f.k.g.u.e.e.e.e.e.r.",
"r.e.e.e.e.e.t.0.# J.~.I.~.~.I.~.I.F.F.P.I.b.f.l.I.<Xz.l.c.F.G.b.k.f.a.s.a.@ c.F.J.I.k.l.M.M.J.H.G.k.l.k.l.l.h.f.g.u.e.e.e.e.e.e.",
"e.e.e.e.e.e.e.i.P.~.~.2X<X~.~.P.F.F.K.H.b.h.M.I.J.~.K.b.K.L.s.a.a.F.s.k.s.p.G.F.P.~.k.c.b.H.M.J.<X,Xk.f.f.f.f.f.p.u.e.e.e.e.e.r.",
"uXe.e.e.e.e.e.u.U.1X3X~.~.P.<XH.G.F.G.U.b.p.b.J.U.~.K.G.h.K.F.f.z.J.f.f.p.f.G.G.M.~.l.l.c.M.M.~.U.1X2Xl.f.k.f.- y.r.e.e.e.e.e.uX",
"uXe.e.e.e.e.e.r.E.3X,X~.I.~.~.M.I.G.I.<Xl.# x.K.J.x.L.I.K.F.b.K.H.k.x.f.@ G.z.G.M.U.H.H.P.~.~.I.U.U.1X2XI.f.- 0.w.e.e.e.e.e.e.uX",
"uXe.e.e.e.e.e.r.m.1XE.I.M.P.M.I.H.P.<XJ.a.# # f.n.x.P.U.1X~.K.M.I.J.K.: - F.F.k.U.H.k.P.<X3X1XI.U.~.,X<X2X2XF.0.w.e.e.e.e.e.e.uX",
"uXe.e.e.e.e.e.e.t.E.E.Y.z.z.P.^.F.(.H.@ @ l.k.x.f.h.k.c.F.G.n.F.I.F.J.s.h.M.b.M.H.z.a.K.~.3X3X<XI.^.~.~.P.x.g.0.r.e.e.e.e.e.e.uX",
"uXuXe.e.e.e.e.e.r.m.E.M.^.<X~.H.U.U.d.a.z.x.d.h.b.b.d.# p.l.b.b.G.G.f.f.f.b.P.~.M.a.a.H.<X~.Y.Y.L.L.b.h.0.s.0.y.e.e.e.e.e.e.uXuX",
"uXuXe.e.e.e.e.e.e.t.M.,XI.5X~.H.(.k.d.k.l.: b.G.l.p.f.f.f.s.p.p.a.F.F.s.d.f.I.G.a.k.a.p.~.d.- p.p.a.p.s.- - 0.t.e.e.e.e.e.e.uXuX",
"uXuXe.e.e.e.e.e.e.r.m.M.1X1X~.~.n.0.l.k.g.l.k.: z.J.<XJ.x.H.l.: k.F.J.J.J.H.c.p.k.c.h.0.j.L.p.d.a.s.a.a.f.0.i.r.e.e.e.e.e.e.uXuX",
"uXuXuXe.e.e.e.e.e.r.u.,X3X2X<XI.L.n.k.k.l.f.: 0.s.K.K.H.U.P.F.F.: a.h.f.z.f.@ h.c.b.h.p.p.k.^.x.b.z.c.z.l.i.t.e.e.e.e.e.e.uXuXuX",
"uXuXuXe.e.e.e.e.e.e.r.m.<X5X^.I.I.K.k.h.h.h.k.v.n.p.c.~.x.f.x.P.U.k.f.a.d.l.l.1XY.x.p.p.p.p.h.L.M.F.z.H.m.y.e.e.e.e.e.e.e.uXuXuX",
"uXuXuXuXq.q.q.q.q.q.q.y.M.^.v.n.L.v.j.v.j.n.v.n.s.- j.n.L.F.n.c.I.n.j.n.j.j.G.n.n.z.P.v.v.j.s.j.L.P.L.K.m.q.q.q.q.q.q.q.uXuXuXuX",
"uXuXuXuXuX4 4 4 4 4 4 4 6 V v i p j h h h h h h h j j h k b p p h x x x x x h h j b p p p p a h p b N.z 6 4 4 4 4 4 4 uXuXuXuXuX",
"uXuXuXuXuX2 1 1 1 1 1 1 1 8 u s l g g g g g k g d d g d a i i 0 i p i a x l g p g a h g h a a i i 0 e t 1 1 1 1 1 1 1 uXuXuXuXuX",
"uXuXuXuXuXuX1 1 1 1 1 1 1 1 5 w l k g g g g g k k k l l d d d d i 0 0 0 0 a i i i i i a c ).).).N z y 3 1 1 1 1 1 1 uXuXuXuXuXuX",
"uXuXuXuXuXuXuX1 1 1 1 1 1 1 3 5 w f c C.l l g h d k h g k k k k l g d d k x c k i i 0 i a a k k e 6 1 1 1 1 1 1 1 uXuXuXuXuXuXuX",
"uXuXuXuXuXuXuX5 1 1 1 1 1 1 1 1 1 y N ).C.k k k k k l l l h d k g g h a c ).).).k a i i p l f y 7 1 1 1 1 1 1 1 2 uXuXuXuXuXuXuX",
"uXuXuXuXuXuXuXuX1 1 1 1 1 1 1 1 1 1 7 V N.k g l g d d g k k k d g d d i l N.).).c i i i q , 3 1 1 1 1 1 1 1 1 2 uXuXuXuXuXuXuXuX",
"uXuXuXuXuXuXuXuXuX3 1 1 1 1 1 1 1 5 7 8 w f l k k d k d d d d d d d g a k k C.).l s q w 6 7 t 5 1 1 1 1 1 1 1 uXuXuXuXuXuXuXuXuX",
"uXuXuXuXuXuXuXuXuXuX3 1 1 1 1 1 t }.6X5 3 y e e f d d g d k k k g d a a g v c z e , 8 3 7 ].{.t 1 1 1 1 1 1 uXuXuXuXuXuXuXuXuXuX",
"uXuXuXuXuXuXuXuXuXuXuX2 1 1 1 t 6X_.].1 u B 2 3 8 w f s s s d s d f s s q q < , 3 7 u 1 t qXB._.u 1 1 1 2 uXuXuXuXuXuXuXuXuXuXuX",
"uXuXuXuXuXuXuXuXuXuXuXuXuX1 t 6X0X6XB 2 {.qXt B.u 7 7 9 < < y y < < 6 6 8 7 t 5 1 m wXB 2 M B._.6X2 1 uXuXuXuXuXuXuXuXuXuXuXuXuX",
"uXuXuXuXuXuXuXuXuXuXuXuXuXuX7 t t qXu t 6X{.B.wXV.M 0X].m 7 M n t 7 m n 7 ].6X[.1 n ].6Xu 1 B {._.1 uXuXuXuXuXuXuXuXuXuXuXuXuXuX",
"uXuXuXuXuXuXuXuXuXuXuXuXuXuXuXuX2 m 2 B._.wX{.qXt _.].u t u qX_.}.7 {.B r wXt t 1 u qX6X0Xt t u uXuXuXuXuXuXuXuXuXuXuXuXuXuXuXuX",
"uXuXuXuXuXuXuXuXuXuXuXuXuXuXuXuXuX2 2 m u 0XV.].1 }.6XB.1 u wX[.{.1 _.B.2 0Xu u t t qXt n t 1 uXuXuXuXuXuXuXuXuXuXuXuXuXuXuXuXuX",
"uXuXuXuXuXuXuXuXuXuXuXuXuXuXuXuXuXuXuXuX5 7 m u 5 qXV.u 2 u qX0Xn 1 V.[.1 _.}.0Xn 5 n 2 uXuXuXuXuXuXuXuXuXuXuXuXuXuXuXuXuXuXuXuX",
"uXuXuXuXuXuXuXuXuXuXuXuXuXuXuXuXuXuXuXuXuXuX2 1 2 M B.[.t u ].m ].2 V.].7 7 m n 2 2 uXuXuXuXuXuXuXuXuXuXuXuXuXuXuXuXuXuXuXuXuXuX",
"uXuXuXuXuXuXuXuXuXuXuXuXuXuXuXuXuXuXuXuXuXuXuXuXuXuX2 2 2 2 7 2 7 1 7 5 2 2 uXuXuXuXuXuXuXuXuXuXuXuXuXuXuXuXuXuXuXuXuXuXuXuXuXuX"
};
