/* XPM */
static char *_511140106424[] = {
/* columns rows colors chars-per-pixel */
"16 16 187 2 ",
"   c #3A7955",
".  c #387A56",
"X  c #46775C",
"o  c #4C795B",
"O  c #507D5F",
"+  c #B80E3D",
"@  c #D6032A",
"#  c #D7032A",
"$  c #D80028",
"%  c #D80128",
"&  c #D80129",
"*  c #D90129",
"=  c #D80229",
"-  c #C20937",
";  c #CC0F33",
":  c #C10D3A",
">  c #CC1134",
",  c #C21A39",
"<  c #C31B3B",
"1  c #C41939",
"2  c #D11C3D",
"3  c #B9274B",
"4  c #AE3C58",
"5  c #A94053",
"6  c #B0485C",
"7  c #8F5262",
"8  c #915464",
"9  c #9A5260",
"0  c #9F5361",
"q  c #9C5462",
"w  c #9D5567",
"e  c #965868",
"r  c #965869",
"t  c #985A6A",
"y  c #9D5B6C",
"u  c #B36674",
"i  c #02923D",
"p  c #02913E",
"a  c #00923E",
"s  c #01923E",
"d  c #01933E",
"f  c #1B983F",
"g  c #299C3F",
"h  c #299E3F",
"j  c #158A47",
"k  c #1A8749",
"l  c #1F864C",
"z  c #188B49",
"x  c #1F884C",
"c  c #039240",
"v  c #049140",
"b  c #069141",
"n  c #079141",
"m  c #1C9840",
"M  c #25874E",
"N  c #32874C",
"B  c #38864F",
"V  c #4F8064",
"C  c #538368",
"Z  c #57876C",
"A  c #5F896C",
"S  c #669072",
"D  c #6B9577",
"F  c #70997B",
"G  c #729B7D",
"H  c #729C7E",
"J  c #918A58",
"K  c #91885E",
"L  c #948D5C",
"P  c #998E5E",
"I  c #9A8F5F",
"U  c #9E905A",
"Y  c #AE9C57",
"T  c #AE9D5B",
"R  c #908961",
"E  c #958D65",
"W  c #968D65",
"Q  c #9E9263",
"!  c #999365",
"~  c #9B936A",
"^  c #9C9768",
"/  c #A49662",
"(  c #A19666",
")  c #A49868",
"_  c #A69A6A",
"`  c #A89C6C",
"'  c #A19970",
"]  c #A29A71",
"[  c #A79F75",
"{  c #ABA06F",
"}  c #A8A373",
"|  c #AEA272",
" . c #A9A178",
".. c #B1A473",
"X. c #B2A675",
"o. c #B7AA79",
"O. c #B4AD7D",
"+. c #B5AF7F",
"@. c #B8AC7A",
"#. c #C7B84C",
"$. c #C2B550",
"%. c #C6B357",
"&. c #C9B554",
"*. c #E5C74C",
"=. c #E6CC4E",
"-. c #E6CD4F",
";. c #EACA4A",
":. c #EAD443",
">. c #E9D544",
",. c #F8D547",
"<. c #FFD944",
"1. c #FFDA44",
"2. c #FFDB44",
"3. c #FFDB45",
"4. c #F4D248",
"5. c #2A5F98",
"6. c #32599E",
"7. c #2F639B",
"8. c #114BA8",
"9. c #124BA9",
"0. c #1659A9",
"q. c #1A5FA8",
"w. c #0654B1",
"e. c #0052B4",
"r. c #0555B4",
"t. c #145BB0",
"y. c #1A60A8",
"u. c #3660AB",
"i. c #4D6681",
"p. c #546C87",
"a. c #526E8F",
"s. c #596B8A",
"d. c #5B6D8E",
"f. c #5D6F8F",
"g. c #587089",
"h. c #58708A",
"j. c #4F6D92",
"k. c #446C9C",
"l. c #567192",
"z. c #597495",
"x. c #5B7696",
"c. c #5F7A9B",
"v. c #617292",
"b. c #617395",
"n. c #657696",
"m. c #657797",
"M. c #627992",
"N. c #627A93",
"B. c #647C95",
"V. c #657D96",
"C. c #667D96",
"Z. c #607B9C",
"A. c #617C9C",
"S. c #617C9D",
"D. c #627D9D",
"F. c #657F9F",
"G. c #6A7C9B",
"H. c #527EB2",
"J. c #6F879F",
"K. c #6782A3",
"L. c #6883A3",
"P. c #6C86A7",
"I. c #6E89A9",
"U. c #6F89A9",
"Y. c #708BAB",
"T. c #718BAB",
"R. c #7791B1",
"E. c #7792B3",
"W. c #7E91B5",
"Q. c #7D97B7",
"!. c #7493B8",
"~. c #879DB4",
"^. c #8AA1B8",
"/. c #C0B482",
"(. c #C1B482",
"). c #C1B88D",
"_. c #CCBF8D",
"`. c #C7BE93",
"'. c #C8BE93",
"]. c #CDC08E",
"[. c #D1C491",
"{. c #D8CB97",
"}. c #D1CA99",
"|. c #DCCF9C",
" X c #D7D09F",
".X c #DCD4A4",
"XX c None",
/* pixels */
"XXXXXXXXXXp d p p d d XXXXXXXXXX",
"XXXXXXp p b j x M z b d d XXXXXX",
"XXXXp c k . V Z C X   M b d XXXX",
"XXh f N o S H D F H A o B m h XX",
"XX:.#.J ^ +. X.X}.O.} ^ L $.:.XX",
"2.,.Y I ` o.].]./...| _ ( T 4.2.",
"2.;.U I Q /.|.{.[.o.X.` ) / *.2.",
"-.&.K R E  .`.'.).[ ] ] ~ E %.-.",
"q.5.i.N.V.N.~.~.J.s.N.V.h.p.7.q.",
"e.t.!.Q.U.D.I.J.l.z.L.U.Y.j.0.e.",
"e.r.H.E.K.a.z.D.c.c.D.E.P.k.w.e.",
"XX9.u.W.n.s.m.G.v.v.h.f.b.6.9.XX",
"XX+ - 3 w t e 8 7 r 7 y 4 : + XX",
"XXXX& & 2 6 0 q 9 u 5 < # & XXXX",
"XXXXXX& & @ > < 1 ; @ & & XXXXXX",
"XXXXXXXXXX& % % & & & XXXXXXXXXX"
};
